# xmcd CD database file
#
# Track frame offsets:
#	150
#	30968
#	50091
#	68415
#	96582
#	118262
#	150355
#	166769
#	189378
#	223763
#
# Disc length: 3351 seconds
#
# Revision: 0
# Processed by: cddbd v1.5.2PL0 Copyright (c) Steve Scherf et al.
# Submitted via: CDex 1.70beta2
#
DISCID=800d150a
DTITLE=David Gazarov - Jazz Christmas
DYEAR=1900
DGENRE=Jazz
TTITLE0=White Christmas
TTITLE1=Silent Night
TTITLE2=Kommet Ihr Hirten
TTITLE3=Have Yourself a Merry Christmas
TTITLE4=Wassail Song
TTITLE5=Leise rieselt der Schnee/A Child Is Borm
TTITLE6=Santa Claus Is Coming to Town
TTITLE7=Oh Tannenbaum
TTITLE8=The Christmas Song
TTITLE9=Es ist ein Ros' entsprungen
EXTD=
EXTT0=
EXTT1=
EXTT2=
EXTT3=
EXTT4=
EXTT5=
EXTT6=
EXTT7=
EXTT8=
EXTT9=
PLAYORDER=
